<svg width="15" height="15" viewBox="0 0 15 15" fill="currentColor" xmlns="http://www.w3.org/2000/svg">
<path d="M15 7.5C15 7.7387 14.9052 7.96761 14.7364 8.1364C14.5676 8.30518 14.3387 8.4 14.1 8.4H8.4V14.1C8.4 14.3387 8.30518 14.5676 8.1364 14.7364C7.96761 14.9052 7.7387 15 7.5 15C7.26131 15 7.03239 14.9052 6.8636 14.7364C6.69482 14.5676 6.6 14.3387 6.6 14.1V8.4H0.9C0.661305 8.4 0.432387 8.30518 0.263604 8.1364C0.0948212 7.96761 0 7.7387 0 7.5C0 7.26131 0.0948212 7.03239 0.263604 6.8636C0.432387 6.69482 0.661305 6.6 0.9 6.6H6.6V0.9C6.6 0.661305 6.69482 0.432387 6.8636 0.263604C7.03239 0.0948212 7.26131 0 7.5 0C7.7387 0 7.96761 0.0948212 8.1364 0.263604C8.30518 0.432387 8.4 0.661305 8.4 0.9V6.6H14.1C14.3387 6.6 14.5676 6.69482 14.7364 6.8636C14.9052 7.03239 15 7.26131 15 7.5Z" fill="url(#paint0_linear_242_254)"/>
<defs>
<linearGradient id="paint0_linear_242_254" x1="7.5" y1="0" x2="7.5" y2="15" gradientUnits="userSpaceOnUse">
<stop stop-color="white" stop-opacity="0.9"/>
<stop offset="1" stop-color="white" stop-opacity="0.6"/>
</linearGradient>
</defs>
</svg>
