<svg width="10" height="10" viewBox="0 0 10 10" fill="none" xmlns="http://www.w3.org/2000/svg">
<path d="M5.41917 7.97536C5.4751 8.03109 5.51947 8.09732 5.54975 8.17024C5.58003 8.24316 5.59562 8.32134 5.59562 8.4003C5.59562 8.47925 5.58003 8.55743 5.54975 8.63035C5.51947 8.70327 5.4751 8.7695 5.41917 8.82523L5.12221 9.12219C4.55951 9.6849 3.79631 10.001 3.00052 10.001C2.20474 10.001 1.44154 9.6849 0.878833 9.12219C0.316126 8.55948 0 7.79629 0 7.0005C0 6.20471 0.316126 5.44152 0.878833 4.87881L2.08466 3.67349C2.62532 3.13149 3.35276 2.81672 4.11797 2.79367C4.88318 2.77062 5.62825 3.04103 6.20056 3.5495C6.25964 3.60202 6.30781 3.66567 6.3423 3.7368C6.37679 3.80794 6.39693 3.88517 6.40157 3.96409C6.40621 4.04301 6.39526 4.12207 6.36935 4.19675C6.34344 4.27144 6.30307 4.34029 6.25055 4.39938C6.19803 4.45847 6.13438 4.50663 6.06325 4.54112C5.99211 4.57561 5.91488 4.59575 5.83597 4.60039C5.75705 4.60503 5.67799 4.59409 5.6033 4.56817C5.52861 4.54226 5.45976 4.50189 5.40067 4.44937C5.05748 4.14458 4.61081 3.98243 4.15201 3.99609C3.69322 4.00975 3.25698 4.19819 2.93253 4.52286L1.72771 5.72669C1.39014 6.06426 1.20049 6.5221 1.20049 6.9995C1.20049 7.4769 1.39014 7.93474 1.72771 8.27231C2.06528 8.60989 2.52313 8.79953 3.00052 8.79953C3.47792 8.79953 3.93577 8.60989 4.27334 8.27231L4.57029 7.97536C4.62601 7.91958 4.69217 7.87533 4.765 7.84514C4.83783 7.81495 4.9159 7.79941 4.99473 7.79941C5.07357 7.79941 5.15164 7.81495 5.22446 7.84514C5.29729 7.87533 5.36345 7.91958 5.41917 7.97536ZM9.12263 0.876394C8.55946 0.314552 7.79644 -0.000976562 7.00094 -0.000976562C6.20544 -0.000976562 5.44242 0.314552 4.87925 0.876394L4.58229 1.17335C4.46959 1.28605 4.40628 1.43891 4.40628 1.59829C4.40628 1.75767 4.46959 1.91053 4.58229 2.02323C4.69499 2.13593 4.84785 2.19924 5.00723 2.19924C5.16661 2.19924 5.31947 2.13593 5.43217 2.02323L5.72913 1.72627C6.0667 1.3887 6.52454 1.19905 7.00194 1.19905C7.47934 1.19905 7.93718 1.3887 8.27475 1.72627C8.61233 2.06384 8.80197 2.52169 8.80197 2.99908C8.80197 3.47648 8.61233 3.93433 8.27475 4.2719L7.06943 5.47772C6.7447 5.80226 6.30822 5.99042 5.84931 6.00371C5.3904 6.017 4.94376 5.85441 4.60079 5.54921C4.5417 5.49669 4.47285 5.45632 4.39816 5.43041C4.32348 5.4045 4.24442 5.39355 4.1655 5.39819C4.08658 5.40284 4.00935 5.42298 3.93821 5.45747C3.86708 5.49196 3.80344 5.54012 3.75091 5.5992C3.69839 5.65829 3.65802 5.72714 3.63211 5.80183C3.6062 5.87652 3.59525 5.95558 3.5999 6.0345C3.60454 6.11341 3.62468 6.19065 3.65917 6.26178C3.69366 6.33291 3.74182 6.39656 3.80091 6.44908C4.37281 6.95744 5.11738 7.22802 5.88223 7.20543C6.64708 7.18285 7.37439 6.86882 7.91531 6.3276L9.12113 5.12227C9.68363 4.55925 9.99972 3.79601 10 3.00014C10.0003 2.20428 9.68473 1.44082 9.12263 0.877394V0.876394Z" fill="url(#paint0_linear_117_156)"/>
<defs>
<linearGradient id="paint0_linear_117_156" x1="2.39664" y1="1.82717" x2="6.94908" y2="7.58468" gradientUnits="userSpaceOnUse">
<stop stop-color="white"/>
<stop offset="1" stop-color="white" stop-opacity="0.72"/>
</linearGradient>
</defs>
</svg>
