<svg width="13" height="14" viewBox="0 0 13 14" fill="none" xmlns="http://www.w3.org/2000/svg">
<path d="M11.6562 2.8125H1.34375C1.15727 2.8125 0.978427 2.88658 0.846566 3.01844C0.714704 3.1503 0.640625 3.32914 0.640625 3.51562C0.640625 3.70211 0.714704 3.88095 0.846566 4.01281C0.978427 4.14467 1.15727 4.21875 1.34375 4.21875H1.57812V12.1875C1.57812 12.4983 1.70159 12.7964 1.92136 13.0161C2.14113 13.2359 2.4392 13.3594 2.75 13.3594H10.25C10.5608 13.3594 10.8589 13.2359 11.0786 13.0161C11.2984 12.7964 11.4219 12.4983 11.4219 12.1875V4.21875H11.6562C11.8427 4.21875 12.0216 4.14467 12.1534 4.01281C12.2853 3.88095 12.3594 3.70211 12.3594 3.51562C12.3594 3.32914 12.2853 3.1503 12.1534 3.01844C12.0216 2.88658 11.8427 2.8125 11.6562 2.8125ZM10.0156 11.9531H2.98438V4.21875H10.0156V11.9531ZM3.45312 1.17188C3.45312 0.985395 3.5272 0.806552 3.65907 0.674691C3.79093 0.542829 3.96977 0.46875 4.15625 0.46875H8.84375C9.03023 0.46875 9.20907 0.542829 9.34093 0.674691C9.4728 0.806552 9.54688 0.985395 9.54688 1.17188C9.54688 1.35836 9.4728 1.5372 9.34093 1.66906C9.20907 1.80092 9.03023 1.875 8.84375 1.875H4.15625C3.96977 1.875 3.79093 1.80092 3.65907 1.66906C3.5272 1.5372 3.45312 1.35836 3.45312 1.17188Z" fill="#E93A6B"/>
</svg>
