<svg width="10" height="10" viewBox="0 0 10 10" fill="none" xmlns="http://www.w3.org/2000/svg">
<path d="M6.11301 1.73534L5.92769 1.94893C5.87159 2.01366 5.80329 2.06671 5.7267 2.10505C5.6501 2.14338 5.5667 2.16626 5.48126 2.17237C5.39582 2.17847 5.31001 2.16769 5.22874 2.14064C5.14747 2.11358 5.07232 2.07078 5.00759 2.01469C4.94286 1.95859 4.88981 1.89029 4.85147 1.81369C4.81313 1.7371 4.79026 1.6537 4.78415 1.56826C4.77182 1.3957 4.82854 1.22532 4.94183 1.09459L5.144 0.861438C5.15433 0.850025 5.16465 0.838612 5.17552 0.827743C5.70552 0.297748 6.42435 0 7.17387 0C7.545 0 7.91249 0.073099 8.25537 0.215123C8.59825 0.357148 8.90979 0.565316 9.17222 0.827743C9.43465 1.09017 9.64281 1.40172 9.78484 1.74459C9.92686 2.08747 9.99996 2.45496 9.99996 2.82609C9.99996 3.19722 9.92686 3.56471 9.78484 3.90759C9.64281 4.25047 9.43465 4.56201 9.17222 4.82444C9.16135 4.83531 9.14994 4.84564 9.13852 4.85596L8.90537 5.05813C8.84064 5.11423 8.76549 5.15703 8.68422 5.18408C8.60295 5.21114 8.51714 5.22192 8.43171 5.21581C8.34627 5.20971 8.26287 5.18683 8.18627 5.14849C8.10967 5.11016 8.04137 5.05711 7.98528 4.99237C7.92918 4.92764 7.88638 4.85249 7.85933 4.77122C7.83227 4.68995 7.82149 4.60414 7.8276 4.5187C7.8337 4.43326 7.85658 4.34987 7.89492 4.27327C7.93325 4.19667 7.9863 4.12837 8.05104 4.07227L8.26462 3.88695C8.54055 3.59972 8.69286 3.21575 8.68886 2.81747C8.68486 2.4192 8.52487 2.03836 8.24324 1.75673C7.9616 1.47509 7.58077 1.3151 7.18249 1.3111C6.78422 1.3071 6.40025 1.45942 6.11301 1.73534ZM4.99237 7.98528C4.92765 7.92917 4.8525 7.88636 4.77123 7.8593C4.68995 7.83223 4.60414 7.82145 4.5187 7.82756C4.43326 7.83366 4.34986 7.85654 4.27326 7.89489C4.19666 7.93323 4.12836 7.98629 4.07227 8.05104L3.88695 8.26462C3.59972 8.54055 3.21575 8.69286 2.81747 8.68886C2.4192 8.68486 2.03836 8.52487 1.75673 8.24324C1.47509 7.9616 1.3151 7.58077 1.3111 7.18249C1.3071 6.78422 1.45942 6.40025 1.73534 6.11301L1.94893 5.92769C2.07966 5.8144 2.16003 5.65381 2.17237 5.48126C2.1847 5.30871 2.12798 5.13832 2.01469 5.00759C1.90139 4.87686 1.74081 4.79648 1.56826 4.78415C1.3957 4.77182 1.22532 4.82854 1.09459 4.94183L0.861438 5.144C0.850025 5.15433 0.838612 5.16465 0.827743 5.17552C0.297748 5.70552 -7.89754e-09 6.42435 0 7.17387C7.89754e-09 7.9234 0.297748 8.64222 0.827743 9.17222C1.35774 9.70221 2.07657 9.99996 2.82609 9.99996C3.57562 9.99996 4.29444 9.70221 4.82444 9.17222C4.83531 9.16135 4.84564 9.14994 4.85596 9.13852L5.05813 8.90537C5.11424 8.84065 5.15705 8.7655 5.18411 8.68423C5.21117 8.60296 5.22196 8.51715 5.21585 8.4317C5.20975 8.34626 5.18687 8.26286 5.14852 8.18626C5.11018 8.10966 5.05712 8.04137 4.99237 7.98528ZM9.34776 6.08693H8.26082C8.08785 6.08693 7.92197 6.15564 7.79966 6.27794C7.67736 6.40025 7.60865 6.56613 7.60865 6.73909C7.60865 6.91206 7.67736 7.07794 7.79966 7.20024C7.92197 7.32255 8.08785 7.39126 8.26082 7.39126H9.34776C9.52073 7.39126 9.68661 7.32255 9.80891 7.20024C9.93122 7.07794 9.99993 6.91206 9.99993 6.73909C9.99993 6.56613 9.93122 6.40025 9.80891 6.27794C9.68661 6.15564 9.52073 6.08693 9.34776 6.08693ZM0.652201 3.91304H1.73915C1.91211 3.91304 2.07799 3.84433 2.2003 3.72202C2.3226 3.59972 2.39131 3.43383 2.39131 3.26087C2.39131 3.0879 2.3226 2.92202 2.2003 2.79972C2.07799 2.67741 1.91211 2.6087 1.73915 2.6087H0.652201C0.479236 2.6087 0.313355 2.67741 0.19105 2.79972C0.0687446 2.92202 3.44148e-05 3.0879 3.44148e-05 3.26087C3.44148e-05 3.43383 0.0687446 3.59972 0.19105 3.72202C0.313355 3.84433 0.479236 3.91304 0.652201 3.91304ZM6.73909 7.60865C6.56613 7.60865 6.40025 7.67736 6.27794 7.79966C6.15564 7.92197 6.08693 8.08785 6.08693 8.26082V9.34776C6.08693 9.52073 6.15564 9.68661 6.27794 9.80891C6.40025 9.93122 6.56613 9.99993 6.73909 9.99993C6.91206 9.99993 7.07794 9.93122 7.20024 9.80891C7.32255 9.68661 7.39126 9.52073 7.39126 9.34776V8.26082C7.39126 8.08785 7.32255 7.92197 7.20024 7.79966C7.07794 7.67736 6.91206 7.60865 6.73909 7.60865ZM3.26087 2.39131C3.43383 2.39131 3.59972 2.3226 3.72202 2.2003C3.84433 2.07799 3.91304 1.91211 3.91304 1.73915V0.652201C3.91304 0.479236 3.84433 0.313355 3.72202 0.19105C3.59972 0.0687446 3.43383 3.44148e-05 3.26087 3.44148e-05C3.0879 3.44148e-05 2.92202 0.0687446 2.79972 0.19105C2.67741 0.313355 2.6087 0.479236 2.6087 0.652201V1.73915C2.6087 1.91211 2.67741 2.07799 2.79972 2.2003C2.92202 2.3226 3.0879 2.39131 3.26087 2.39131Z" fill="url(#paint0_linear_117_188)"/>
<defs>
<linearGradient id="paint0_linear_117_188" x1="2.39663" y1="1.82778" x2="6.94793" y2="7.58499" gradientUnits="userSpaceOnUse">
<stop stop-color="white"/>
<stop offset="1" stop-color="white" stop-opacity="0.72"/>
</linearGradient>
</defs>
</svg>
