<svg width="14" height="13" viewBox="0 0 14 13" fill="none" xmlns="http://www.w3.org/2000/svg">
<path d="M13.8002 10.7557L8.33456 1.26379C8.19798 1.03124 8.00299 0.838428 7.76894 0.704454C7.53488 0.57048 7.26987 0.5 7.00018 0.5C6.73049 0.5 6.46549 0.57048 6.23143 0.704454C5.99737 0.838428 5.80239 1.03124 5.66581 1.26379L0.200182 10.7557C0.0687672 10.9806 -0.000488281 11.2364 -0.000488281 11.4969C-0.000488281 11.7574 0.0687672 12.0132 0.200182 12.2382C0.335014 12.4721 0.529663 12.666 0.764158 12.7999C0.998652 12.9338 1.26455 13.0028 1.53456 13H12.4658C12.7356 13.0026 13.0012 12.9334 13.2355 12.7996C13.4698 12.6657 13.6642 12.4719 13.7989 12.2382C13.9305 12.0134 14 11.7576 14.0002 11.4971C14.0004 11.2366 13.9314 10.9807 13.8002 10.7557ZM12.9333 11.7375C12.8857 11.8188 12.8173 11.886 12.7351 11.9321C12.653 11.9782 12.56 12.0017 12.4658 12H1.53456C1.44036 12.0017 1.34741 11.9782 1.26526 11.9321C1.18311 11.886 1.11471 11.8188 1.06706 11.7375C1.0239 11.6645 1.00113 11.5812 1.00113 11.4963C1.00113 11.4114 1.0239 11.3281 1.06706 11.255L6.53268 1.76317C6.58129 1.68227 6.65001 1.61534 6.73215 1.56887C6.81429 1.5224 6.90706 1.49797 7.00143 1.49797C7.09581 1.49797 7.18857 1.5224 7.27071 1.56887C7.35286 1.61534 7.42157 1.68227 7.47018 1.76317L12.9358 11.255C12.9786 11.3283 13.0009 11.4118 13.0005 11.4966C13 11.5815 12.9768 11.6647 12.9333 11.7375ZM6.50018 8.00004V5.50004C6.50018 5.36743 6.55286 5.24026 6.64663 5.14649C6.7404 5.05272 6.86757 5.00004 7.00018 5.00004C7.13279 5.00004 7.25997 5.05272 7.35374 5.14649C7.4475 5.24026 7.50018 5.36743 7.50018 5.50004V8.00004C7.50018 8.13265 7.4475 8.25983 7.35374 8.35359C7.25997 8.44736 7.13279 8.50004 7.00018 8.50004C6.86757 8.50004 6.7404 8.44736 6.64663 8.35359C6.55286 8.25983 6.50018 8.13265 6.50018 8.00004ZM7.75018 10.25C7.75018 10.3984 7.7062 10.5434 7.62378 10.6667C7.54137 10.7901 7.42424 10.8862 7.28719 10.943C7.15015 10.9997 6.99935 11.0146 6.85386 10.9856C6.70838 10.9567 6.57474 10.8853 6.46985 10.7804C6.36496 10.6755 6.29353 10.5418 6.26459 10.3964C6.23565 10.2509 6.25051 10.1001 6.30727 9.96303C6.36404 9.82598 6.46017 9.70885 6.5835 9.62644C6.70684 9.54403 6.85185 9.50004 7.00018 9.50004C7.19909 9.50004 7.38986 9.57906 7.53051 9.71971C7.67116 9.86036 7.75018 10.0511 7.75018 10.25Z" fill="#E93A6B"/>
</svg>
